PathFileType	4	(X/Y/Z)	..\data\2014030\dynamic\2014030_C5_02.trc
DataRate	CameraRate	NumFrames	NumMarkers	Units	OrigDataRate	OrigDataStartFrame	OrigNumFrames
100.000000	100.000000	4	52	mm	100.000000	96	155
Frame#	Time	L_IAS			L_IPS			R_IPS			R_IAS			L_FTC			L_FLE			L_FME			L_FAX			L_TTC			L_FAL			L_TAM			L_FCC			L_FM1			L_FM2			L_FM5			R_FTC			R_FLE			R_FME			R_FAX			R_TTC			R_FAL			R_TAM			R_FCC			R_FM1			R_FM2			R_FM5			CV7			TV10			SXS			SJN			L_SIA			L_SRS			L_SAA			L_SAE			L_HLE			L_HME			L_UOA			L_RSP			L_UHE			L_HM2			L_HM5			R_SIA			R_SRS			R_SAA			R_SAE			R_HLE			R_HME			R_UOA			R_RSP			R_UHE			R_HM2			R_HM5			
		X1	Y1	Z1	X2	Y2	Z2	X3	Y3	Z3	X4	Y4	Z4	X5	Y5	Z5	X6	Y6	Z6	X7	Y7	Z7	X8	Y8	Z8	X9	Y9	Z9	X10	Y10	Z10	X11	Y11	Z11	X12	Y12	Z12	X13	Y13	Z13	X14	Y14	Z14	X15	Y15	Z15	X16	Y16	Z16	X17	Y17	Z17	X18	Y18	Z18	X19	Y19	Z19	X20	Y20	Z20	X21	Y21	Z21	X22	Y22	Z22	X23	Y23	Z23	X24	Y24	Z24	X25	Y25	Z25	X26	Y26	Z26	X27	Y27	Z27	X28	Y28	Z28	X29	Y29	Z29	X30	Y30	Z30	X31	Y31	Z31	X32	Y32	Z32	X33	Y33	Z33	X34	Y34	Z34	X35	Y35	Z35	X36	Y36	Z36	X37	Y37	Z37	X38	Y38	Z38	X39	Y39	Z39	X40	Y40	Z40	X41	Y41	Z41	X42	Y42	Z42	X43	Y43	Z43	X44	Y44	Z44	X45	Y45	Z45	X46	Y46	Z46	X47	Y47	Z47	X48	Y48	Z48	X49	Y49	Z49	X50	Y50	Z50	X51	Y51	Z51	X52	Y52	Z52	

97	0.96	1026.939331054688	912.1848144531252	-397.6733703613282	834.4410400390627	964.5230102539065	-302.4971923828126	851.630798339844	960.0647583007815	-188.9615936279297	1055.283569335938	918.3330078125002	-141.1652526855469	939.9357910156252	850.882263183594	-440.1483764648439	851.3901977539065	459.2138061523439	-355.5437927246094	843.4839477539065	472.743133544922	-235.8331146240235	824.492614746094	401.4548950195314	-351.8377075195313	876.007263183594	395.2642211914064	-287.1272583007813	706.8718872070314	84.3027801513672	-314.0556335449219	716.8558959960939	101.116943359375	-224.1314086914063	647.8884277343751	50.72686767578126	-275.0556640625001	832.5120239257815	19.13203239440918	-218.9652862548829	845.5522460937502	32.47824096679688	-277.1128540039063	808.133239746094	15.99248218536377	-333.9317626953126	975.8496704101565	836.9499511718752	-78.61795043945314	1126.953247070313	471.7738037109376	-141.8041534423828	1128.686279296875	476.3778686523439	-265.6550292968751	1138.726196289063	414.7925109863282	-143.7991638183594	1196.716918945313	431.594940185547	-197.9956512451172	1231.0224609375	84.42300415039064	-177.687240600586	1248.285522460938	105.4135131835938	-264.5545349121094	1207.18359375	18.84355354309082	-229.7843780517579	1379.357666015625	88.86011505126955	-251.8881988525391	1374.359130859375	96.46785736083987	-196.0649414062501	1346.3916015625	53.33163833618165	-152.3873138427735	920.5503540039065	1414.716796875	-261.8241577148438	846.7463989257815	1187.085205078125	-281.5924072265626	1085.08203125	1104.654907226563	-274.3938903808594	1051.404052734375	1322.175048828125	-274.0380859375001	844.6074829101565	1219.934204101563	-378.5210266113282	880.7683715820315	1350.95947265625	-382.8831787109376	934.020690917969	1353.389892578125	-448.0090942382814	990.1479492187502	1365.629150390625	-459.2128295898439	1027.436401367188	1066.70751953125	-570.8630371093751	979.0483398437502	1039.962890625	-516.5354614257814	1003.104309082031	1022.538696289063	-554.5053100585939	1209.633666992188	914.7832641601565	-490.3794860839845	1182.566162109375	891.084655761719	-553.6590576171876	1279.003540039063	863.5440673828127	-481.4374084472657	1215.888916015625	828.0283203125002	-556.3374633789064	840.2344970703127	1210.859130859375	-193.6523437500001	880.8774414062502	1333.828857421875	-167.494857788086	920.5406494140627	1336.203247070313	-113.428825378418	972.5554809570315	1339.637817382813	-88.00478363037111	864.1981201171877	1042.498657226563	-16.92214393615723	826.206726074219	1038.200439453125	-90.73862457275392	823.3328247070315	1023.025817871094	-43.64044570922852	870.5935668945315	795.760192871094	-54.27282333374025	829.726989746094	809.860290527344	12.75307369232178	886.6065063476565	710.4353027343751	-43.44293975830079	819.5950927734377	740.0963134765626	28.11892890930176	
98	0.97	1040.147094726563	911.031188964844	-398.3487548828126	848.016296386719	963.2324829101565	-301.5299072265626	866.230407714844	958.3538208007815	-188.0549468994141	1070.148681640625	916.4821777343752	-142.0480346679688	952.6146240234377	850.0332031250002	-440.4493103027345	860.5291137695315	459.0602416992189	-356.0848388671876	852.8965454101565	472.8013000488282	-236.3233032226563	832.521667480469	401.7335205078126	-352.3479614257813	884.0422363281252	394.2806396484376	-287.5177001953126	708.1702880859376	87.05559539794923	-314.7899780273438	718.5355834960939	103.4083251953125	-224.7720642089844	648.4405517578126	54.41514205932619	-275.4771423339844	832.489929199219	19.00935363769532	-219.1468353271485	845.8228759765627	32.49992370605469	-277.2393798828126	808.4279785156252	16.05704116821289	-333.9240417480469	991.1293945312502	834.8909301757815	-79.16340637207033	1139.035400390625	469.1254882812501	-143.7463989257813	1140.1513671875	473.9376525878907	-267.8561096191407	1151.5947265625	412.2125244140626	-146.234130859375	1209.447875976563	430.0474853515626	-200.5691375732422	1249.605712890625	83.33238983154298	-181.7821044921875	1266.27783203125	104.963493347168	-268.5343627929688	1226.492309570313	17.62036514282227	-233.9808959960938	1397.762939453125	90.13414764404298	-256.6273193359376	1392.94091796875	97.17996978759768	-200.8266143798829	1365.683349609375	53.5799903869629	-157.3385467529297	933.8101196289065	1413.112182617188	-261.7302246093751	860.174987792969	1185.503784179688	-281.0913696289063	1099.152465820313	1103.36328125	-274.4304199218751	1065.1142578125	1320.950927734375	-273.9577331542969	858.2731933593752	1218.1435546875	-378.0028686523438	893.966735839844	1349.323120117188	-382.5663452148438	947.270690917969	1351.712158203125	-447.8137207031251	1003.341491699219	1364.1376953125	-459.0905151367189	1042.0771484375	1065.655151367188	-571.2221069335939	993.8835449218752	1038.448364257813	-516.8775024414064	1018.184326171875	1021.1416015625	-554.7522583007814	1226.718383789063	916.9975585937502	-490.8853759765626	1200.011840820313	892.7962646484377	-554.0325317382814	1297.06689453125	867.1804809570315	-482.0991516113282	1234.456298828125	830.2814941406252	-556.7012329101564	854.254577636719	1209.072143554688	-193.258529663086	894.7985839843752	1332.118286132813	-167.2356262207032	934.3415527343752	1334.778076171875	-113.2623062133789	986.4058227539065	1338.285888671875	-87.78871917724611	876.1115722656252	1041.919555664063	-17.15351104736328	838.3002929687502	1037.902954101563	-91.08480834960939	835.1582031250002	1022.946594238281	-43.93859863281251	878.674255371094	795.070251464844	-53.90524291992189	838.5212402343752	809.9708251953127	13.41918563842774	893.013122558594	709.5738525390626	-43.42476272583009	827.263610839844	740.2548828125001	28.78874969482423	
99	0.98	1053.633911132813	909.9282836914065	-398.9457092285157	861.8398437500002	962.0801391601565	-300.6872863769532	880.9151000976565	956.8487548828127	-187.2350006103516	1085.093505859375	914.7466430664065	-142.8932647705078	965.712097167969	849.229431152344	-440.7239379882814	870.4026489257815	458.8795776367189	-356.8493041992188	863.1416625976565	472.6631469726564	-237.0341491699219	841.2609863281252	402.019012451172	-353.0955810546876	892.830017089844	393.1589660644532	-288.2686462402344	709.7044067382814	90.13140106201173	-315.7902832031251	720.5733642578126	106.0013961791992	-225.7219696044922	649.2446289062501	58.66648864746095	-276.1279907226563	832.2886962890627	18.94024658203125	-219.3782501220704	846.017761230469	32.44647598266602	-277.3576965332032	808.6270141601565	16.03927993774414	-333.8714904785157	1006.510314941406	832.989196777344	-79.73769378662111	1151.791259765625	466.9717102050782	-145.8878936767578	1152.5546875	472.1571655273439	-270.1281127929688	1164.719970703125	410.0704040527345	-148.8002471923828	1222.352661132813	428.5043334960939	-203.3485107421876	1265.121337890625	82.21411132812501	-185.7816772460938	1281.277709960938	104.1897354125977	-272.4988708496094	1241.96875	16.70340156555176	-237.9361114501954	1412.898315429688	89.72598266601564	-261.2544555664063	1408.342407226563	96.40500640869143	-205.4700469970704	1381.373413085938	52.75232696533205	-162.1567077636719	947.224304199219	1411.661376953125	-261.4820251464844	873.7773437500002	1184.077392578125	-280.5270080566407	1113.413330078125	1102.231811523438	-274.3589782714844	1078.978759765625	1319.903442382813	-273.7619628906251	872.0583496093752	1216.509521484375	-377.3694763183594	907.3051757812502	1347.843383789063	-382.1124267578126	960.6757812500002	1350.181518554688	-447.4764404296876	1016.670776367188	1362.773559570313	-458.8634338378907	1056.401123046875	1064.630004882813	-571.3750000000001	1008.399047851563	1037.069580078125	-517.0007324218751	1032.89111328125	1019.849365234375	-554.7761230468751	1243.180541992188	918.8254394531252	-491.3832397460939	1216.76318359375	894.2298583984377	-554.4151611328126	1314.411010742188	870.3208007812502	-482.8555297851564	1252.209106445313	832.2085571289065	-557.1588745117189	868.4073486328127	1207.425415039063	-192.7656707763672	908.8721313476565	1330.53515625	-166.8305206298828	948.3034667968752	1333.423828125	-112.9369888305664	1000.39404296875	1337.008056640625	-87.44026947021486	888.4948730468752	1041.274658203125	-17.32345390319825	850.8444824218752	1037.513916015625	-91.35167694091798	847.4645996093752	1022.769287109375	-44.17338180541993	887.546813964844	794.3659667968752	-53.45746994018556	848.0373535156252	810.0190429687502	14.11414813995362	900.2293090820315	708.7761230468751	-43.37842559814454	835.7197875976565	740.3593750000001	29.4829444885254	
100	0.99	1067.402954101563	908.8923950195315	-399.4333496093751	875.9187011718752	961.0778808593752	-300.0028686523438	895.668884277344	955.5928955078127	-186.5327606201172	1100.093383789063	913.1829833984377	-143.6505584716797	979.247253417969	848.4637451171877	-440.952606201172	881.0849609375002	458.6587524414064	-357.8714599609376	874.398376464844	472.2632446289064	-238.011947631836	850.7901611328127	402.3099060058595	-354.1225585937501	902.481872558594	391.8768920898439	-289.4852905273438	711.5687255859376	93.5481643676758	-317.0708007812501	723.1074218750001	108.919303894043	-227.0225830078126	650.4471435546876	63.57681274414064	-277.0223693847657	831.884948730469	18.97970771789551	-219.6548461914063	846.0859375000002	32.29167938232423	-277.4509887695313	808.665710449219	15.93110466003418	-333.7429504394532	1021.918518066406	831.321960449219	-80.31300354003908	1165.24462890625	465.352508544922	-148.1850128173828	1165.817749023438	471.0478820800782	-272.4213256835938	1178.14990234375	408.3881225585939	-151.4451751708985	1235.442504882813	427.0044555664064	-206.3133544921876	1277.79931640625	81.01966857910158	-189.616439819336	1293.465576171875	103.0532760620117	-276.3830261230469	1253.842041015625	16.00345611572266	-241.5549774169922	1425.00146484375	87.64115142822267	-265.7553710937501	1420.8173828125	94.15847778320314	-209.9769744873047	1393.743286132813	50.84810638427736	-166.7759246826172	960.8168945312502	1410.409423828125	-261.0814819335938	887.575134277344	1182.846923828125	-279.9078063964844	1127.859375	1101.295288085938	-274.1849060058594	1093.007446289063	1319.067260742188	-273.4699096679688	885.9642333984377	1215.089721679688	-376.6417846679688	920.8128662109377	1346.571655273438	-381.5366821289063	974.2564086914065	1348.848022460938	-447.007537841797	1030.165283203125	1361.575073242188	-458.5328063964845	1070.39892578125	1063.659423828125	-571.3152465820314	1022.596984863281	1035.857299804688	-516.8814086914064	1047.210815429688	1018.686218261719	-554.5667114257814	1259.015258789063	920.2474365234377	-491.8938903808595	1232.769775390625	895.339050292969	-554.8004760742189	1331.03076171875	872.925231933594	-483.7496948242189	1269.077392578125	833.7525634765627	-557.6976318359376	882.6910400390627	1205.972778320313	-192.1822967529297	923.097106933594	1329.131103515625	-166.2883911132813	962.428894042969	1332.185180664063	-112.4630508422852	1014.528991699219	1335.838745117188	-86.96786499023439	901.3579101562502	1040.593139648438	-17.43423461914063	863.8597412109377	1037.0576171875	-91.54455566406251	860.2612915039065	1022.518798828125	-44.34614562988282	897.2290039062502	793.6700439453127	-52.94124603271486	858.3037109375002	810.019470214844	14.83320140838623	908.315856933594	708.0509033203126	-43.29219436645509	844.9978637695315	740.4206542968751	30.20106506347657	
